PathFileType	4	(X/Y/Z)	D:\Share\Shared_Data\Ergonomics\Sit To Stand Pertubation\S1\Perturbed_NoHarness.trc
DataRate	CameraRate	NumFrames	NumMarkers	Units	OrigDataRate	OrigDataStartFrame	OrigNumFrames	
100	100	13	18	m	100	3445	231
Frame#	Time	L_ASIS			R_ASIS			R_Pelvis			V_Sacral			L_Pelvis			Clavical			R_Acromium			L_Acromium			Sternum			Torso			R_Thigh_Med			R_Thigh_Lat			R_Thigh			R_Shank_Med			R_Shank_Lat			R_Shank			R_Heel			R_Toe			
		X1	Y1	Z1	X2	Y2	Z2	X3	Y3	Z3	X4	Y4	Z4	X5	Y5	Z5	X6	Y6	Z6	X7	Y7	Z7	X8	Y8	Z8	X9	Y9	Z9	X10	Y10	Z10	X11	Y11	Z11	X12	Y12	Z12	X13	Y13	Z13	X14	Y14	Z14	X15	Y15	Z15	X16	Y16	Z16	X17	Y17	Z17	X18	Y18	Z18	

3445	34.44	0.48249191	0.90526135	-0.095730309	0.40169724	0.90802667	0.13562848	0.40774612	0.91073041	0.13761479	0.29398105	0.90287073	-0.0082952576	0.39538461	0.90820691	-0.15672714	0.46097992	1.2541686	-0.0011597714	0.3946666	1.3214688	0.1492502	0.34979263	1.2784951	-0.19670961	0.44610425	1.2651492	0.10177175	0.45596475	1.2602212	-0.060626492	0.35215329	0.42017908	0.065359535	0.37492523	0.44267072	0.18148634	0.4607836	0.60483984	0.11932166	0.34258212	0.10160909	0.10666169	0.32120444	0.1018105	0.18755396	0.34034042	0.31305862	0.2022756	0.27362079	0.043857231	0.14049413	0.4786459	0.048085098	0.14912158
3446	34.45	0.48447592	0.90515784	-0.095300049	0.40884943	0.90702606	0.1325034	0.4073822	0.91053302	0.13750826	0.29595361	0.90276245	-0.0087428341	0.39760431	0.90795074	-0.15681345	0.46098608	1.2541102	-0.0013614979	0.39432294	1.3210947	0.14905811	0.34965451	1.2778851	-0.19692609	0.44602841	1.265006	0.10155744	0.45600461	1.2601089	-0.0608857	0.35175928	0.42031631	0.065662193	0.37431894	0.4428031	0.1819169	0.46141684	0.60453394	0.12012579	0.34255219	0.10172594	0.10677614	0.32104953	0.1018624	0.1876743	0.3398013	0.31314554	0.20253996	0.27362927	0.043941704	0.14056433	0.47866449	0.047522263	0.14903799
3447	34.46	0.48636533	0.90504388	-0.094861343	0.41642307	0.90593274	0.12911336	0.40672272	0.91031384	0.13739023	0.29782062	0.90261841	-0.0091994572	0.39974301	0.90768469	-0.15691246	0.46100162	1.2540155	-0.0015496163	0.39399789	1.3207108	0.14887077	0.34957037	1.2772589	-0.19712729	0.44595102	1.2648331	0.10135172	0.45606805	1.259962	-0.061129871	0.35149268	0.42042398	0.065901512	0.37384851	0.44290305	0.18226843	0.46207553	0.60425165	0.12088395	0.34254016	0.10182234	0.10687405	0.32091376	0.10191285	0.18778139	0.33936447	0.31322311	0.20275169	0.27363339	0.04399081	0.14060167	0.47868265	0.046986683	0.14895912
3448	34.47	0.48815707	0.90492316	-0.09444072	0.4242453	0.90478088	0.12555024	0.40582697	0.91007794	0.13724829	0.29958072	0.90244171	-0.0096634378	0.40179056	0.90741235	-0.157033	0.4610274	1.2538923	-0.0017253382	0.39369232	1.3203267	0.14868576	0.34954703	1.2766293	-0.19731596	0.44587283	1.2646393	0.1011535	0.45615558	1.2597898	-0.061359501	0.35135776	0.420505	0.066078659	0.37351324	0.44297311	0.18254106	0.46275458	0.60399133	0.12157333	0.34254721	0.10189984	0.10695392	0.32079834	0.1019629	0.18787289	0.33902994	0.31329282	0.20291042	0.27363516	0.044017822	0.14061658	0.47870035	0.046493607	0.14888731
3449	34.48	0.48984933	0.90479913	-0.094065804	0.43211768	0.90360876	0.12191985	0.40476559	0.90983051	0.1370712	0.30123416	0.902237	-0.01013245	0.40373746	0.90713757	-0.1571826	0.46106384	1.253749	-0.0018901353	0.3934061	1.3199525	0.14850031	0.3495899	1.2760095	-0.19749557	0.44579449	1.2644336	0.10096152	0.45626688	1.2596006	-0.061575432	0.35135385	0.42056317	0.066195503	0.3733085	0.44301718	0.18273721	0.46344696	0.60375067	0.12217194	0.3425737	0.10196062	0.10701493	0.32070349	0.10201373	0.18794701	0.3387944	0.31335638	0.20301712	0.27363629	0.044033875	0.14061775	0.47871732	0.046055008	0.14882449
3450	34.49	0.49144177	0.9046756	-0.093762894	0.43983221	0.90245599	0.11833332	0.403616	0.90957709	0.13684972	0.30278271	0.90200922	-0.010603648	0.40557581	0.90686444	-0.15736707	0.46111053	1.2535935	-0.0020457175	0.39313861	1.3195974	0.14831149	0.34970273	1.2754121	-0.1976702	0.44571622	1.2642255	0.10077445	0.4564006	1.2594033	-0.06177879	0.35147534	0.42060245	0.06625486	0.37322568	0.44304019	0.18286159	0.46414456	0.60352692	0.12266031	0.34261938	0.1020073	0.10705703	0.32062885	0.10206652	0.1880027	0.33865167	0.31341605	0.20307422	0.273638	0.044047161	0.14061133	0.47873352	0.04567889	0.14877185
3451	34.5	0.49293582	0.90455554	-0.093554596	0.44718875	0.90136017	0.11489777	0.40245636	0.90932343	0.13657782	0.30422986	0.90176434	-0.011073817	0.40729965	0.90659717	-0.1575899	0.46116656	1.2534336	-0.0021940093	0.39288873	1.3192699	0.14811641	0.34988712	1.2748479	-0.19784431	0.44563831	1.2640233	0.10059075	0.4565546	1.2592063	-0.061971092	0.35171198	0.42062714	0.066260643	0.3732529	0.44304767	0.18292064	0.46483841	0.60331714	0.12302292	0.34268335	0.10204282	0.10708092	0.320573	0.10212247	0.18803978	0.33859274	0.31347382	0.20308528	0.27364127	0.04406234	0.14060051	0.47874863	0.045369041	0.1487299
3452	34.51	0.49433417	0.90444196	-0.093457497	0.45401108	0.90035419	0.11170776	0.40136017	0.90907574	0.13625313	0.30558011	0.90150842	-0.011539548	0.40890546	0.90633936	-0.15785197	0.46123065	1.2532755	-0.0023371234	0.39265466	1.3189766	0.14791225	0.35014261	1.2743264	-0.19802271	0.44556067	1.2638342	0.10040876	0.45672607	1.2590164	-0.062154182	0.35205008	0.42064133	0.066217888	0.37337579	0.44304544	0.1829223	0.46551971	0.60311877	0.12324963	0.34276382	0.10207014	0.10708796	0.32053412	0.10218251	0.18805876	0.33860666	0.31353192	0.20305499	0.27364627	0.044080162	0.1405854	0.47876251	0.045125214	0.14869849
3453	34.52	0.49564108	0.90433691	-0.093480614	0.46015976	0.89946393	0.10883844	0.40039059	0.90883966	0.13587743	0.30683926	0.90124805	-0.011997433	0.41039249	0.90609442	-0.15815125	0.46130118	1.2531249	-0.0024773266	0.39243463	1.3187223	0.14769647	0.35046664	1.2738551	-0.19821048	0.44548334	1.2636646	0.10022672	0.45691183	1.2588396	-0.062330231	0.35247305	0.42064877	0.06613253	0.37357855	0.44303909	0.18287549	0.46618045	0.60292944	0.12333647	0.34285867	0.10209209	0.10708012	0.3205097	0.10224737	0.18806093	0.33868137	0.3135921	0.20298865	0.27365277	0.044097412	0.14056297	0.47877502	0.044943707	0.14867688
3454	34.53	0.49686176	0.90424231	-0.09362455	0.46554053	0.89870642	0.10634106	0.39959665	0.90862097	0.13545624	0.30801355	0.90098914	-0.012444259	0.41176288	0.90586493	-0.15848305	0.46137637	1.2529852	-0.0026169903	0.39222662	1.3185096	0.14746687	0.35085446	1.273438	-0.1984128	0.44540622	1.2635184	0.10004269	0.45710852	1.2586801	-0.062501682	0.35296283	0.42065268	0.066011253	0.37384439	0.44303357	0.18278937	0.46681363	0.60274738	0.12328608	0.34296512	0.10211115	0.10705968	0.32049722	0.10231737	0.18804802	0.33880429	0.31365573	0.20289211	0.27366	0.044107037	0.14052702	0.47878598	0.044818157	0.14866399
3455	34.54	0.4980022	0.90415881	-0.093881599	0.47010736	0.89808984	0.10424146	0.39901047	0.90842462	0.13499821	0.30910977	0.90073761	-0.012877176	0.41302145	0.90565295	-0.1588405	0.46145453	1.2528593	-0.0027585299	0.39202887	1.3183395	0.14722165	0.35129959	1.273077	-0.1986351	0.44532938	1.2633984	0.099854736	0.45731296	1.2585402	-0.062671162	0.35350089	0.42065561	0.065861061	0.37415695	0.44303284	0.182673	0.46741415	0.60257166	0.12310761	0.34308023	0.10212929	0.10702921	0.32049393	0.10239244	0.1880222	0.33896313	0.31372354	0.20277136	0.27366684	0.044098564	0.14046892	0.47879541	0.04474044	0.14865834
3456	34.55	0.49906882	0.90408643	-0.094236855	0.47386047	0.89761322	0.10254111	0.39864648	0.90825476	0.13451419	0.31013467	0.90049854	-0.013293832	0.41417532	0.90545929	-0.15921516	0.46153433	1.2527473	-0.0029043269	0.3918396	1.3182098	0.14695953	0.35179391	1.2727719	-0.1988831	0.44525281	1.2633046	0.099660889	0.45752225	1.2584199	-0.062841393	0.35406909	0.42065927	0.065689056	0.37450067	0.44303946	0.18253481	0.46797876	0.60240216	0.12281613	0.34320081	0.1021479	0.10699126	0.32049734	0.10247203	0.18798584	0.3391463	0.31379565	0.20263231	0.27367154	0.044058807	0.14037791	0.47880313	0.044701565	0.14865843
3457	34.56	0.50006805	0.9040238	-0.094669945	0.47684033	0.89726849	0.10122027	0.39850232	0.90811414	0.13401585	0.31109485	0.90027643	-0.013692436	0.41523352	0.90528412	-0.15959795	0.46161459	1.2526484	-0.0030566401	0.39165744	1.3181178	0.14667966	0.35232828	1.2725197	-0.19916283	0.4451767	1.2632361	0.099459236	0.45773386	1.2583184	-0.063015022	0.35465067	0.4206647	0.065502037	0.37486148	0.44305469	0.18238217	0.46850616	0.60223926	0.12243153	0.34332367	0.10216775	0.10694823	0.32050507	0.10255511	0.18794128	0.33934366	0.31387155	0.20248048	0.27367245	0.043972851	0.14024205	0.47880923	0.044692474	0.14866273
